<svg width="14" height="28" viewBox="0 0 14 28" fill="none" xmlns="http://www.w3.org/2000/svg">
  <g clip-path="url(#clip0_2577_555)">
    <path fill-rule="evenodd" clip-rule="evenodd"
      d="M-1.02256 2.06568C-0.722834 1.85577 -0.365768 1.74316 0.00015831 1.74316C0.366086 1.74316 0.723149 1.85577 1.02288 2.06568C1.31854 2.27275 1.54429 2.56462 1.67043 2.90259L4.07276 8.95209L4.07994 8.97078C4.08215 8.97676 4.08606 8.98196 4.09119 8.98575C4.09631 8.98954 4.10243 8.99176 4.1088 8.99213L4.11421 8.99244L10.5673 9.40809C12.2425 9.51686 12.815 11.6138 11.5958 12.6273C11.5956 12.6275 11.596 12.6271 11.5958 12.6273L6.6528 16.7501L6.64993 16.7525C6.63881 16.7617 6.63052 16.7738 6.626 16.7875C6.6216 16.8009 6.62096 16.8152 6.62414 16.8288C6.62422 16.8292 6.62431 16.8296 6.6244 16.8299L8.22003 23.1031C8.60637 24.6281 6.95964 26.0015 5.52709 25.0979L5.5249 25.0965L0.0124006 21.5965C0.00889397 21.5943 0.00431728 21.5928 0.00015831 21.5928C-0.00400162 21.5928 -0.00807285 21.594 -0.0115795 21.5962L-0.0129595 21.5971L-5.14101 24.8445C-5.14128 24.8447 -5.14074 24.8443 -5.14101 24.8445C-6.71251 25.8436 -8.52838 24.3251 -8.09937 22.6436C-8.09944 22.6438 -8.0993 22.6433 -8.09937 22.6436L-6.62409 16.8299C-6.62401 16.8296 -6.62393 16.8293 -6.62385 16.8289C-6.62064 16.8152 -6.62127 16.8009 -6.62568 16.7875C-6.6302 16.7738 -6.63849 16.7617 -6.64961 16.7525L-6.65248 16.7501L-11.5948 12.6278C-11.5951 12.6276 -11.5946 12.628 -11.5948 12.6278C-12.8139 11.6144 -12.2426 9.51689 -10.5675 9.40812L-4.10848 8.99211C-4.10211 8.99174 -4.09599 8.98954 -4.09087 8.98575C-4.08574 8.98196 -4.08184 8.97676 -4.07962 8.97078L-4.07244 8.95209L-1.67011 2.90259C-1.54398 2.56462 -1.31823 2.27275 -1.02256 2.06568ZM0.00015831 3.49316C-0.00657654 3.49316 -0.0131483 3.49524 -0.0186653 3.4991C-0.0241823 3.50296 -0.0283766 3.50843 -0.0306778 3.51476C-0.0335836 3.52275 -0.0366058 3.53069 -0.0397425 3.53859L-2.44293 9.59024C-2.56405 9.9104 -2.77482 10.189 -3.05015 10.3927C-3.32777 10.598 -3.65904 10.7183 -4.00371 10.739L-10.4541 11.1544C-10.4542 11.1544 -10.454 11.1544 -10.4541 11.1544C-10.4668 11.1553 -10.4721 11.1575 -10.4722 11.1575C-10.4726 11.1577 -10.4729 11.1578 -10.474 11.1587C-10.4772 11.1614 -10.488 11.1728 -10.4952 11.1962C-10.5025 11.2198 -10.5014 11.2401 -10.4983 11.2519C-10.4969 11.2571 -10.4952 11.2609 -10.4932 11.2641C-10.4913 11.267 -10.487 11.2731 -10.4767 11.2816L-10.4753 11.2828L-5.53445 15.4038C-5.53388 15.4043 -5.53331 15.4048 -5.53273 15.4052C-5.26835 15.6244 -5.0711 15.9136 -4.96361 16.2398C-4.85589 16.5667 -4.84271 16.9173 -4.92559 17.2514L-4.92672 17.2559L-6.40365 23.076C-6.43526 23.1998 -6.39165 23.2956 -6.31173 23.3564C-6.27083 23.3875 -6.22951 23.4008 -6.19685 23.4031C-6.16985 23.405 -6.13246 23.4011 -6.08055 23.3681L-0.950604 20.1195C-0.950145 20.1192 -0.949685 20.1189 -0.949225 20.1186C-0.665349 19.9385 -0.336069 19.8428 0.00015831 19.8428C0.336732 19.8428 0.66634 19.9386 0.950414 20.1192C0.950245 20.119 0.950583 20.1193 0.950414 20.1192L6.46072 23.6178C6.46049 23.6176 6.46096 23.6179 6.46072 23.6178C6.47069 23.624 6.47723 23.6264 6.479 23.627C6.48132 23.6265 6.48886 23.6244 6.49926 23.6165C6.51253 23.6065 6.52097 23.594 6.52479 23.5837C6.52652 23.5791 6.52769 23.5741 6.52804 23.5679C6.52837 23.562 6.5282 23.551 6.52386 23.5338C6.52385 23.5338 6.52388 23.5338 6.52386 23.5338L4.9259 17.2514C4.84301 16.9173 4.8562 16.5667 4.96393 16.2398C5.07143 15.9136 5.26874 15.6243 5.53318 15.4051C5.53371 15.4047 5.53424 15.4043 5.53477 15.4038L10.4771 11.2816C10.4873 11.2731 10.4916 11.267 10.4935 11.2641C10.4955 11.2609 10.4972 11.2571 10.4986 11.2519C10.5017 11.2401 10.5028 11.2198 10.4955 11.1962C10.4883 11.1728 10.4775 11.1614 10.4743 11.1587C10.4733 11.1578 10.4729 11.1577 10.4726 11.1575C10.4725 11.1575 10.4674 11.1553 10.4547 11.1545C10.4546 11.1545 10.4548 11.1545 10.4547 11.1545L4.00715 10.7392C4.00611 10.7391 4.00507 10.7391 4.00402 10.739C3.65936 10.7183 3.32809 10.598 3.05046 10.3927C2.77514 10.189 2.56437 9.9104 2.44324 9.59024L0.0400591 3.53859C0.0369225 3.53069 0.0338993 3.52275 0.0309935 3.51476C0.0286932 3.50843 0.0244989 3.50297 0.01898 3.4991C0.013463 3.49524 0.0068922 3.49316 0.00015831 3.49316Z"
      fill="#8381D9" />
    <path
      d="M-0.0186653 3.4991C-0.0131483 3.49524 -0.00657654 3.49316 0.00015831 3.49316C0.0068922 3.49316 0.013463 3.49524 0.01898 3.4991C0.0244989 3.50297 0.0286932 3.50843 0.0309935 3.51476C0.0338993 3.52275 0.0369225 3.53069 0.0400591 3.53859L2.44324 9.59024C2.56437 9.9104 2.77514 10.189 3.05046 10.3927C3.32809 10.598 3.65936 10.7183 4.00402 10.739L4.00715 10.7392L10.4547 11.1545C10.4674 11.1553 10.4725 11.1575 10.4726 11.1575C10.4729 11.1577 10.4733 11.1578 10.4743 11.1587C10.4775 11.1614 10.4883 11.1728 10.4955 11.1962C10.5028 11.2198 10.5017 11.2401 10.4986 11.2519C10.4972 11.2571 10.4955 11.2609 10.4935 11.2641C10.4916 11.267 10.4873 11.2731 10.4771 11.2816L5.53477 15.4038C5.53424 15.4043 5.53371 15.4047 5.53318 15.4051C5.26874 15.6243 5.07143 15.9136 4.96393 16.2398C4.8562 16.5667 4.84301 16.9173 4.9259 17.2514L6.52386 23.5338C6.5282 23.551 6.52837 23.562 6.52804 23.5679C6.52769 23.5741 6.52652 23.5791 6.52479 23.5837C6.52097 23.594 6.51253 23.6065 6.49926 23.6165C6.48886 23.6244 6.48132 23.6265 6.479 23.627C6.47723 23.6264 6.47069 23.624 6.46072 23.6178L0.950414 20.1192C0.66634 19.9386 0.336732 19.8428 0.00015831 19.8428C-0.336069 19.8428 -0.665349 19.9385 -0.949225 20.1186C-0.949685 20.1189 -0.950145 20.1192 -0.950604 20.1195L-6.08055 23.3681C-6.13246 23.4011 -6.16985 23.405 -6.19685 23.4031C-6.22951 23.4008 -6.27083 23.3875 -6.31173 23.3564C-6.39165 23.2956 -6.43526 23.1998 -6.40365 23.076L-4.92672 17.2559L-4.92559 17.2514C-4.84271 16.9173 -4.85589 16.5667 -4.96361 16.2398C-5.0711 15.9136 -5.26835 15.6244 -5.53273 15.4052C-5.53331 15.4048 -5.53388 15.4043 -5.53445 15.4038L-10.4753 11.2828L-10.4767 11.2816C-10.487 11.2731 -10.4913 11.267 -10.4932 11.2641C-10.4952 11.2609 -10.4969 11.2571 -10.4983 11.2519C-10.5014 11.2401 -10.5025 11.2198 -10.4952 11.1962C-10.488 11.1728 -10.4772 11.1614 -10.474 11.1587C-10.4729 11.1578 -10.4726 11.1577 -10.4722 11.1575C-10.4721 11.1575 -10.4668 11.1553 -10.4541 11.1544L-4.00371 10.739C-3.65904 10.7183 -3.32777 10.598 -3.05015 10.3927C-2.77482 10.189 -2.56405 9.9104 -2.44293 9.59024L-0.0397425 3.53859C-0.0366058 3.53069 -0.0335836 3.52275 -0.0306778 3.51476C-0.0283766 3.50843 -0.0241823 3.50296 -0.0186653 3.4991Z"
      fill="#8381D9" stroke="#8381D9" />
  </g>
  <defs>
    <clipPath id="clip0_2577_555">
      <rect width="14" height="28" fill="white" />
    </clipPath>
  </defs>
</svg>